<?xml version="1.0" encoding="UTF-8"?>
<svg id="Camada_2" data-name="Camada 2" xmlns="http://www.w3.org/2000/svg" viewBox="0 0 148.43 32" width="148.43" height="32">
  <defs>
    <style>
      .cls-1, .cls-2 {
        stroke-width: 0px;
      }

      .cls-2 {
        fill: #fff;
      }
    </style>
  </defs>
  <g id="Camada_1-2" data-name="Camada 1">
    <rect class="cls-1" x="0" width="32" height="32" rx="2.97" ry="2.97"/>
    <g>
      <g>
        <path class="cls-2" d="M16.84,18.44c2.22,1.03,4.5,1.55,6.44,1.45.01,0,.02,0,.03,0l.14-13.75c0-.49-.54-.78-.94-.51l-11.56,7.8c.94,1.78,3.1,3.71,5.89,5.01Z"/>
        <path class="cls-2" d="M22.8,21.21c-2.02,0-4.3-.55-6.51-1.58-3.04-1.42-5.33-3.44-6.43-5.46l-5.88,3.97c-.46.31-.29,1.02.26,1.1l9.87,1.34c.58.08,1.11.37,1.5.81l6.56,7.5c.36.42,1.05.16,1.06-.39l.07-7.3c-.17,0-.33.01-.5.01Z"/>
      </g>
      <path class="cls-2" d="M22.8,20.17c-2.02,0-4.3-.55-6.51-1.58-5.19-2.42-8.18-6.59-6.83-9.51,1.36-2.91,6.49-3.3,11.67-.88,1.7.79,3.23,1.82,4.45,2.97.26.25.27.66.02.92-.25.26-.66.27-.92.02-1.11-1.05-2.53-2-4.1-2.73-4.37-2.04-8.92-1.92-9.93.25-1.01,2.17,1.82,5.73,6.19,7.77,2.22,1.03,4.5,1.55,6.44,1.45,1.79-.09,3.03-.7,3.49-1.7.49-1.04.02-2.23-.46-3.05-.18-.31-.08-.71.23-.9.31-.18.71-.08.9.23.9,1.53,1.09,3.05.52,4.26-.68,1.46-2.32,2.33-4.61,2.45-.18,0-.37.01-.55.01Z"/>
    </g>
    <g>
      <path class="cls-1" d="M52.19,25.49l-2.27-2.72c-.63.16-1.27.24-1.93.24-1.4,0-2.68-.33-3.85-.98-1.17-.66-2.1-1.57-2.78-2.73s-1.03-2.48-1.03-3.95.34-2.76,1.03-3.93c.68-1.16,1.61-2.07,2.78-2.73,1.17-.66,2.45-.98,3.85-.98s2.7.33,3.86.98c1.16.66,2.08,1.57,2.76,2.73.68,1.16,1.02,2.47,1.02,3.93,0,1.33-.28,2.54-.85,3.63s-1.33,1.98-2.3,2.66l3.42,3.85h-3.72ZM44,17.98c.39.76.92,1.34,1.62,1.74.69.41,1.49.61,2.39.61s1.69-.2,2.38-.61c.68-.41,1.22-.99,1.6-1.74.38-.76.58-1.63.58-2.63s-.19-1.87-.58-2.62c-.39-.75-.92-1.32-1.6-1.72s-1.48-.6-2.38-.6-1.69.2-2.39.6-1.23.97-1.62,1.72c-.39.75-.58,1.62-.58,2.62s.19,1.88.58,2.63Z"/>
      <path class="cls-1" d="M69.09,11v11.85h-3.02v-1.5c-.39.51-.89.92-1.51,1.21-.62.29-1.29.44-2.02.44-.93,0-1.75-.2-2.46-.59-.71-.39-1.27-.97-1.68-1.73-.41-.76-.61-1.67-.61-2.73v-6.95h3v6.53c0,.94.24,1.67.71,2.17s1.11.76,1.93.76,1.48-.25,1.95-.76.71-1.23.71-2.17v-6.53h3.02Z"/>
      <path class="cls-1" d="M82.98,17.83h-8.67c.07.86.37,1.53.9,2.01.53.49,1.18.73,1.95.73,1.11,0,1.9-.48,2.38-1.43h3.23c-.34,1.14-1,2.08-1.97,2.81-.97.73-2.16,1.1-3.57,1.1-1.14,0-2.16-.25-3.07-.76-.91-.51-1.61-1.22-2.12-2.15-.51-.93-.76-2-.76-3.21s.25-2.3.75-3.23c.5-.93,1.2-1.64,2.1-2.14.9-.5,1.93-.75,3.1-.75s2.14.24,3.03.73c.89.49,1.58,1.17,2.08,2.06.49.89.74,1.92.74,3.07,0,.43-.03.81-.09,1.16ZM79.96,15.81c-.01-.77-.29-1.39-.83-1.85-.54-.46-1.21-.7-1.99-.7-.74,0-1.37.22-1.87.67s-.82,1.07-.93,1.87h5.63Z"/>
      <path class="cls-1" d="M87.17,22.52c-.77-.35-1.38-.82-1.83-1.42s-.7-1.26-.74-1.99h3.02c.06.46.28.83.67,1.13.39.3.88.45,1.47.45s1.02-.11,1.34-.34c.32-.23.48-.52.48-.88,0-.38-.2-.67-.59-.87-.39-.19-1.02-.4-1.87-.63-.88-.21-1.61-.44-2.17-.66s-1.05-.58-1.45-1.05c-.41-.47-.61-1.1-.61-1.9,0-.66.19-1.26.57-1.8.38-.54.92-.97,1.63-1.28.71-.31,1.54-.47,2.49-.47,1.41,0,2.54.35,3.38,1.06.84.71,1.31,1.66,1.39,2.86h-2.87c-.04-.47-.24-.84-.59-1.12s-.82-.42-1.4-.42c-.54,0-.96.1-1.25.3s-.44.48-.44.83c0,.4.2.7.6.91.4.21,1.02.42,1.86.63.86.21,1.56.44,2.12.66.56.23,1.04.58,1.44,1.06.41.48.62,1.11.63,1.89,0,.69-.19,1.3-.57,1.84-.38.54-.92.97-1.63,1.27s-1.53.46-2.47.46-1.84-.17-2.61-.52Z"/>
      <path class="cls-1" d="M100.4,13.46v5.73c0,.4.1.69.29.87.19.18.52.27.97.27h1.39v2.52h-1.88c-2.52,0-3.79-1.23-3.79-3.68v-5.71h-1.41v-2.46h1.41v-2.93h3.02v2.93h2.65v2.46h-2.65Z"/>
      <path class="cls-1" d="M112.91,7.79v.39h-6.93v6.95h6.29v.39h-6.29v7.34h-.43V7.79h7.36Z"/>
      <path class="cls-1" d="M116.02,7.02v15.83h-.43V7.02h.43Z"/>
      <path class="cls-1" d="M121.88,22.29c-.86-.48-1.53-1.16-2.02-2.05-.49-.89-.74-1.94-.74-3.16s.25-2.26.74-3.16c.49-.89,1.17-1.58,2.02-2.05.86-.48,1.82-.72,2.89-.72s2.03.24,2.89.72c.86.48,1.53,1.16,2.01,2.05.48.89.73,1.94.73,3.16s-.24,2.26-.73,3.16c-.48.89-1.16,1.58-2.01,2.05-.86.48-1.82.72-2.89.72s-2.03-.24-2.89-.72ZM127.33,22.01c.78-.41,1.42-1.02,1.9-1.85s.73-1.85.73-3.08-.24-2.25-.73-3.08-1.12-1.44-1.9-1.85c-.78-.41-1.64-.61-2.57-.61s-1.79.2-2.58.61c-.79.41-1.43,1.03-1.92,1.86-.48.83-.73,1.86-.73,3.07s.24,2.24.73,3.07,1.12,1.46,1.92,1.86c.79.41,1.65.61,2.58.61s1.78-.2,2.57-.61Z"/>
      <path class="cls-1" d="M148.43,11.3l-3.64,11.55h-.32l-4.21-10.76-4.19,10.76h-.32l-3.64-11.55h.45l3.38,10.78,4.17-10.78h.32l4.17,10.78,3.38-10.78h.45Z"/>
    </g>
  </g>
</svg>